<svg width="18" height="20" viewBox="0 0 18 20" fill="none" xmlns="http://www.w3.org/2000/svg">
    <path d="M14.2822 8.76392C14.2822 8.16757 13.7987 7.68413 13.2024 7.68413H3.48434C2.88799 7.68413 2.40455 8.16757 2.40455 8.76392C2.40455 9.36026 2.88799 9.8437 3.48434 9.8437H12.1226V18.482C12.1226 19.0783 12.606 19.5618 13.2024 19.5618C13.7987 19.5618 14.2822 19.0783 14.2822 18.482V8.76392ZM2.66578 17.7735C2.2441 18.1952 2.2441 18.8788 2.66578 19.3005C3.08746 19.7222 3.77114 19.7222 4.19283 19.3005L2.66578 17.7735ZM12.4389 8.00039L2.66578 17.7735L4.19283 19.3005L13.9659 9.52744L12.4389 8.00039Z" fill="#292929"/>
</svg>